<svg t="1687835560103" class="icon" viewBox="0 0 1024 1024" version="1.1" xmlns="http://www.w3.org/2000/svg" p-id="5073" width="64" height="64"><path d="M272.641924 944.024121 77.908358 944.024121 77.908358 234.109196l194.73477 0L272.643128 944.024121 272.641924 944.024121zM239.318339 270.291427 111.530571 270.291427l0 65.424958 127.787769 0L239.318339 270.291427 239.318339 270.291427zM239.318339 270.291427" fill="#04BABE" p-id="5074"></path><path d="M333.365889 78.621213l193.211523 0 0 865.330658L333.365889 943.951872 333.365889 78.621213 333.365889 78.621213zM498.04754 111.959247 366.177711 111.959247l0 67.464785L498.04754 179.424032 498.04754 111.959247 498.04754 111.959247zM498.04754 111.959247" fill="#04BABE" p-id="5075"></path><path d="M945.701498 885.661489 760.546928 945.990494 540.600917 271.003079l185.154571-60.327801L945.701498 885.661489 945.701498 885.661489zM705.278955 255.404549l-121.49971 39.587561 20.26701 62.201455 121.498505-39.587561L705.278955 255.404549 705.278955 255.404549zM705.278955 255.404549" fill="#04BABE" p-id="5076"></path></svg>
